# xmcd
# 
# Track frame offsets:
#     150
#     32812
#     43957
#     62400
#     78550
#     93477
#     108392
#     121329
#     139427
#     157037
#     168602
#     181947
#     194797
#     203322
#     222562
#     238665
#     249777
#     269745
#     333975
# 
# Disc length: 4680
# 
# Revision: 7
# Processed by: cddbd v1.5.2PL0 Copyright (c) Steve Scherf et al.
# Submitted via: BonkEnc v1.0.8
# 
DISCID=20124613
DTITLE=The Doors - The Best Of The Doors - Disc2
DYEAR=2000
DGENRE=Rock
TTITLE0=Riders On The Storm
TTITLE1=Break On Through
TTITLE2=Roadhouse Blues
TTITLE3=Soul Kitchen
TTITLE4=Love Her Madly
TTITLE5=Alabama Song
TTITLE6=Peace Frog
TTITLE7=Waiting For The Sun
TTITLE8=Who Scared You
TTITLE9=The Crystal Ship
TTITLE10=Wishful Sinful
TTITLE11=Love Street
TTITLE12=Wintertime Love
TTITLE13=The Spy
TTITLE14=Back Door Man
TTITLE15=My Eyes Have Seen You
TTITLE16=Five To One
TTITLE17=The End
TTITLE18=Data Track
EXTD=YEAR: 2000
EXTT0=
EXTT1=
EXTT2=
EXTT3=
EXTT4=
EXTT5=
EXTT6=
EXTT7=
EXTT8=
EXTT9=
EXTT10=
EXTT11=
EXTT12=
EXTT13=
EXTT14=
EXTT15=
EXTT16=
EXTT17=
EXTT18=
PLAYORDER=
